<mxfile host="app.diagrams.net" modified="2024-02-26T18:04:26.538Z" agent="Mozilla/5.0 (Windows NT 10.0; Win64; x64) AppleWebKit/537.36 (KHTML, like Gecko) Chrome/121.0.0.0 Safari/537.36 Edg/121.0.0.0" etag="B54I5YzMW4ct9ejojB5L" version="23.1.4" type="device">
  <diagram name="Page-1" id="f8WD6x9Ryh0b6BnvdUkP">
    <mxGraphModel dx="1242" dy="569" grid="1" gridSize="10" guides="1" tooltips="1" connect="1" arrows="1" fold="1" page="1" pageScale="1" pageWidth="827" pageHeight="1169" math="0" shadow="0">
      <root>
        <mxCell id="0" />
        <mxCell id="1" parent="0" />
        <mxCell id="e0hxpYVWqys8dBpXmxLi-1" value="Candidat" style="shape=table;startSize=30;container=1;collapsible=1;childLayout=tableLayout;fixedRows=1;rowLines=0;fontStyle=1;align=center;resizeLast=1;html=1;fillColor=#DA61FF;" vertex="1" parent="1">
          <mxGeometry x="324" y="5" width="176" height="150" as="geometry" />
        </mxCell>
        <mxCell id="e0hxpYVWqys8dBpXmxLi-5" value="" style="shape=tableRow;horizontal=0;startSize=0;swimlaneHead=0;swimlaneBody=0;fillColor=none;collapsible=0;dropTarget=0;points=[[0,0.5],[1,0.5]];portConstraint=eastwest;top=0;left=0;right=0;bottom=0;" vertex="1" parent="e0hxpYVWqys8dBpXmxLi-1">
          <mxGeometry y="30" width="176" height="120" as="geometry" />
        </mxCell>
        <mxCell id="e0hxpYVWqys8dBpXmxLi-6" value="" style="shape=partialRectangle;connectable=0;fillColor=#DA61FF;top=0;left=0;bottom=0;right=0;editable=1;overflow=hidden;whiteSpace=wrap;html=1;" vertex="1" parent="e0hxpYVWqys8dBpXmxLi-5">
          <mxGeometry width="30" height="120" as="geometry">
            <mxRectangle width="30" height="120" as="alternateBounds" />
          </mxGeometry>
        </mxCell>
        <mxCell id="e0hxpYVWqys8dBpXmxLi-7" value="IUC&lt;br&gt;Nom&lt;br&gt;Prénom&lt;br&gt;Date de naissance&lt;br&gt;pays d&#39;origine&lt;br&gt;numéro de téléphone&lt;br&gt;numéro de passeport&lt;br&gt;statue matrimonial" style="shape=partialRectangle;connectable=0;fillColor=#DA61FF;top=0;left=0;bottom=0;right=0;align=left;spacingLeft=6;overflow=hidden;whiteSpace=wrap;html=1;" vertex="1" parent="e0hxpYVWqys8dBpXmxLi-5">
          <mxGeometry x="30" width="146" height="120" as="geometry">
            <mxRectangle width="146" height="120" as="alternateBounds" />
          </mxGeometry>
        </mxCell>
        <mxCell id="e0hxpYVWqys8dBpXmxLi-14" value="Programme d’immigration" style="shape=table;startSize=30;container=1;collapsible=1;childLayout=tableLayout;fixedRows=1;rowLines=0;fontStyle=1;align=center;resizeLast=1;html=1;fillColor=#DA61FF;" vertex="1" parent="1">
          <mxGeometry x="40" y="50" width="180" height="60" as="geometry" />
        </mxCell>
        <mxCell id="e0hxpYVWqys8dBpXmxLi-24" value="" style="shape=tableRow;horizontal=0;startSize=0;swimlaneHead=0;swimlaneBody=0;fillColor=none;collapsible=0;dropTarget=0;points=[[0,0.5],[1,0.5]];portConstraint=eastwest;top=0;left=0;right=0;bottom=0;" vertex="1" parent="e0hxpYVWqys8dBpXmxLi-14">
          <mxGeometry y="30" width="180" height="30" as="geometry" />
        </mxCell>
        <mxCell id="e0hxpYVWqys8dBpXmxLi-25" value="" style="shape=partialRectangle;connectable=0;fillColor=#DA61FF;top=0;left=0;bottom=0;right=0;editable=1;overflow=hidden;whiteSpace=wrap;html=1;" vertex="1" parent="e0hxpYVWqys8dBpXmxLi-24">
          <mxGeometry width="30" height="30" as="geometry">
            <mxRectangle width="30" height="30" as="alternateBounds" />
          </mxGeometry>
        </mxCell>
        <mxCell id="e0hxpYVWqys8dBpXmxLi-26" value="Nom du programme" style="shape=partialRectangle;connectable=0;fillColor=#DA61FF;top=0;left=0;bottom=0;right=0;align=left;spacingLeft=6;overflow=hidden;whiteSpace=wrap;html=1;" vertex="1" parent="e0hxpYVWqys8dBpXmxLi-24">
          <mxGeometry x="30" width="150" height="30" as="geometry">
            <mxRectangle width="150" height="30" as="alternateBounds" />
          </mxGeometry>
        </mxCell>
        <mxCell id="e0hxpYVWqys8dBpXmxLi-27" value="Test de langues" style="shape=table;startSize=30;container=1;collapsible=1;childLayout=tableLayout;fixedRows=1;rowLines=0;fontStyle=1;align=center;resizeLast=1;html=1;fillColor=#DA61FF;" vertex="1" parent="1">
          <mxGeometry x="600" y="50" width="180" height="80" as="geometry" />
        </mxCell>
        <mxCell id="e0hxpYVWqys8dBpXmxLi-37" value="" style="shape=tableRow;horizontal=0;startSize=0;swimlaneHead=0;swimlaneBody=0;fillColor=none;collapsible=0;dropTarget=0;points=[[0,0.5],[1,0.5]];portConstraint=eastwest;top=0;left=0;right=0;bottom=0;" vertex="1" parent="e0hxpYVWqys8dBpXmxLi-27">
          <mxGeometry y="30" width="180" height="50" as="geometry" />
        </mxCell>
        <mxCell id="e0hxpYVWqys8dBpXmxLi-38" value="" style="shape=partialRectangle;connectable=0;fillColor=#DA61FF;top=0;left=0;bottom=0;right=0;editable=1;overflow=hidden;whiteSpace=wrap;html=1;" vertex="1" parent="e0hxpYVWqys8dBpXmxLi-37">
          <mxGeometry width="30" height="50" as="geometry">
            <mxRectangle width="30" height="50" as="alternateBounds" />
          </mxGeometry>
        </mxCell>
        <mxCell id="e0hxpYVWqys8dBpXmxLi-39" value="Nom du test&lt;br&gt;date du test" style="shape=partialRectangle;connectable=0;fillColor=#DA61FF;top=0;left=0;bottom=0;right=0;align=left;spacingLeft=6;overflow=hidden;whiteSpace=wrap;html=1;" vertex="1" parent="e0hxpYVWqys8dBpXmxLi-37">
          <mxGeometry x="30" width="150" height="50" as="geometry">
            <mxRectangle width="150" height="50" as="alternateBounds" />
          </mxGeometry>
        </mxCell>
        <mxCell id="e0hxpYVWqys8dBpXmxLi-40" value="Agent consultant" style="shape=table;startSize=30;container=1;collapsible=1;childLayout=tableLayout;fixedRows=1;rowLines=0;fontStyle=1;align=center;resizeLast=1;html=1;fillColor=#DA61FF;" vertex="1" parent="1">
          <mxGeometry x="324" y="200" width="180" height="60" as="geometry" />
        </mxCell>
        <mxCell id="e0hxpYVWqys8dBpXmxLi-50" value="" style="shape=tableRow;horizontal=0;startSize=0;swimlaneHead=0;swimlaneBody=0;fillColor=none;collapsible=0;dropTarget=0;points=[[0,0.5],[1,0.5]];portConstraint=eastwest;top=0;left=0;right=0;bottom=0;" vertex="1" parent="e0hxpYVWqys8dBpXmxLi-40">
          <mxGeometry y="30" width="180" height="30" as="geometry" />
        </mxCell>
        <mxCell id="e0hxpYVWqys8dBpXmxLi-51" value="" style="shape=partialRectangle;connectable=0;fillColor=#DA61FF;top=0;left=0;bottom=0;right=0;editable=1;overflow=hidden;whiteSpace=wrap;html=1;" vertex="1" parent="e0hxpYVWqys8dBpXmxLi-50">
          <mxGeometry width="30" height="30" as="geometry">
            <mxRectangle width="30" height="30" as="alternateBounds" />
          </mxGeometry>
        </mxCell>
        <mxCell id="e0hxpYVWqys8dBpXmxLi-52" value="Compte&lt;br&gt;nom complet" style="shape=partialRectangle;connectable=0;fillColor=#DA61FF;top=0;left=0;bottom=0;right=0;align=left;spacingLeft=6;overflow=hidden;whiteSpace=wrap;html=1;" vertex="1" parent="e0hxpYVWqys8dBpXmxLi-50">
          <mxGeometry x="30" width="150" height="30" as="geometry">
            <mxRectangle width="150" height="30" as="alternateBounds" />
          </mxGeometry>
        </mxCell>
        <mxCell id="e0hxpYVWqys8dBpXmxLi-66" value="Candidature" style="shape=table;startSize=30;container=1;collapsible=1;childLayout=tableLayout;fixedRows=1;rowLines=0;fontStyle=1;align=center;resizeLast=1;html=1;fillColor=#B22EFF;" vertex="1" parent="1">
          <mxGeometry x="30" y="170" width="180" height="60" as="geometry" />
        </mxCell>
        <mxCell id="e0hxpYVWqys8dBpXmxLi-67" value="" style="shape=tableRow;horizontal=0;startSize=0;swimlaneHead=0;swimlaneBody=0;fillColor=none;collapsible=0;dropTarget=0;points=[[0,0.5],[1,0.5]];portConstraint=eastwest;top=0;left=0;right=0;bottom=0;" vertex="1" parent="e0hxpYVWqys8dBpXmxLi-66">
          <mxGeometry y="30" width="180" height="30" as="geometry" />
        </mxCell>
        <mxCell id="e0hxpYVWqys8dBpXmxLi-68" value="" style="shape=partialRectangle;connectable=0;fillColor=#DA61FF;top=0;left=0;bottom=0;right=0;editable=1;overflow=hidden;whiteSpace=wrap;html=1;" vertex="1" parent="e0hxpYVWqys8dBpXmxLi-67">
          <mxGeometry width="30" height="30" as="geometry">
            <mxRectangle width="30" height="30" as="alternateBounds" />
          </mxGeometry>
        </mxCell>
        <mxCell id="e0hxpYVWqys8dBpXmxLi-69" value="Date de candidature" style="shape=partialRectangle;connectable=0;fillColor=#DA61FF;top=0;left=0;bottom=0;right=0;align=left;spacingLeft=6;overflow=hidden;whiteSpace=wrap;html=1;" vertex="1" parent="e0hxpYVWqys8dBpXmxLi-67">
          <mxGeometry x="30" width="150" height="30" as="geometry">
            <mxRectangle width="150" height="30" as="alternateBounds" />
          </mxGeometry>
        </mxCell>
        <mxCell id="e0hxpYVWqys8dBpXmxLi-76" value="Suivie des dossiers" style="shape=table;startSize=30;container=1;collapsible=1;childLayout=tableLayout;fixedRows=1;rowLines=0;fontStyle=1;align=center;resizeLast=1;html=1;fillColor=#DA61FF;" vertex="1" parent="1">
          <mxGeometry x="324" y="300" width="180" height="90" as="geometry" />
        </mxCell>
        <mxCell id="e0hxpYVWqys8dBpXmxLi-77" value="" style="shape=tableRow;horizontal=0;startSize=0;swimlaneHead=0;swimlaneBody=0;fillColor=none;collapsible=0;dropTarget=0;points=[[0,0.5],[1,0.5]];portConstraint=eastwest;top=0;left=0;right=0;bottom=0;" vertex="1" parent="e0hxpYVWqys8dBpXmxLi-76">
          <mxGeometry y="30" width="180" height="60" as="geometry" />
        </mxCell>
        <mxCell id="e0hxpYVWqys8dBpXmxLi-78" value="" style="shape=partialRectangle;connectable=0;fillColor=#DA61FF;top=0;left=0;bottom=0;right=0;editable=1;overflow=hidden;whiteSpace=wrap;html=1;" vertex="1" parent="e0hxpYVWqys8dBpXmxLi-77">
          <mxGeometry width="30" height="60" as="geometry">
            <mxRectangle width="30" height="60" as="alternateBounds" />
          </mxGeometry>
        </mxCell>
        <mxCell id="e0hxpYVWqys8dBpXmxLi-79" value="Commentaire pertinant" style="shape=partialRectangle;connectable=0;fillColor=#DA61FF;top=0;left=0;bottom=0;right=0;align=left;spacingLeft=6;overflow=hidden;whiteSpace=wrap;html=1;" vertex="1" parent="e0hxpYVWqys8dBpXmxLi-77">
          <mxGeometry x="30" width="150" height="60" as="geometry">
            <mxRectangle width="150" height="60" as="alternateBounds" />
          </mxGeometry>
        </mxCell>
        <mxCell id="e0hxpYVWqys8dBpXmxLi-88" value="Résultat test langue" style="shape=table;startSize=30;container=1;collapsible=1;childLayout=tableLayout;fixedRows=1;rowLines=0;fontStyle=1;align=center;resizeLast=1;html=1;fillColor=#DA61FF;" vertex="1" parent="1">
          <mxGeometry x="600" y="180" width="180" height="110" as="geometry" />
        </mxCell>
        <mxCell id="e0hxpYVWqys8dBpXmxLi-89" value="" style="shape=tableRow;horizontal=0;startSize=0;swimlaneHead=0;swimlaneBody=0;fillColor=none;collapsible=0;dropTarget=0;points=[[0,0.5],[1,0.5]];portConstraint=eastwest;top=0;left=0;right=0;bottom=0;" vertex="1" parent="e0hxpYVWqys8dBpXmxLi-88">
          <mxGeometry y="30" width="180" height="80" as="geometry" />
        </mxCell>
        <mxCell id="e0hxpYVWqys8dBpXmxLi-90" value="" style="shape=partialRectangle;connectable=0;fillColor=#DA61FF;top=0;left=0;bottom=0;right=0;editable=1;overflow=hidden;whiteSpace=wrap;html=1;" vertex="1" parent="e0hxpYVWqys8dBpXmxLi-89">
          <mxGeometry width="30" height="80" as="geometry">
            <mxRectangle width="30" height="80" as="alternateBounds" />
          </mxGeometry>
        </mxCell>
        <mxCell id="e0hxpYVWqys8dBpXmxLi-91" value="Expression écrite&lt;br&gt;Expression oral&lt;br&gt;écoute&lt;br&gt;lecture" style="shape=partialRectangle;connectable=0;fillColor=#DA61FF;top=0;left=0;bottom=0;right=0;align=left;spacingLeft=6;overflow=hidden;whiteSpace=wrap;html=1;" vertex="1" parent="e0hxpYVWqys8dBpXmxLi-89">
          <mxGeometry x="30" width="150" height="80" as="geometry">
            <mxRectangle width="150" height="80" as="alternateBounds" />
          </mxGeometry>
        </mxCell>
        <mxCell id="e0hxpYVWqys8dBpXmxLi-93" style="edgeStyle=orthogonalEdgeStyle;rounded=0;orthogonalLoop=1;jettySize=auto;html=1;exitX=0;exitY=0.5;exitDx=0;exitDy=0;" edge="1" parent="1" source="e0hxpYVWqys8dBpXmxLi-5">
          <mxGeometry relative="1" as="geometry">
            <mxPoint x="324" y="95" as="targetPoint" />
          </mxGeometry>
        </mxCell>
        <mxCell id="e0hxpYVWqys8dBpXmxLi-99" style="edgeStyle=orthogonalEdgeStyle;rounded=0;orthogonalLoop=1;jettySize=auto;html=1;exitX=0;exitY=0.5;exitDx=0;exitDy=0;entryX=1;entryY=0.5;entryDx=0;entryDy=0;" edge="1" parent="1" source="e0hxpYVWqys8dBpXmxLi-5" target="e0hxpYVWqys8dBpXmxLi-24">
          <mxGeometry relative="1" as="geometry" />
        </mxCell>
        <mxCell id="e0hxpYVWqys8dBpXmxLi-100" style="edgeStyle=orthogonalEdgeStyle;rounded=0;orthogonalLoop=1;jettySize=auto;html=1;exitX=1;exitY=0.5;exitDx=0;exitDy=0;entryX=0;entryY=0.5;entryDx=0;entryDy=0;" edge="1" parent="1" source="e0hxpYVWqys8dBpXmxLi-5" target="e0hxpYVWqys8dBpXmxLi-37">
          <mxGeometry relative="1" as="geometry" />
        </mxCell>
        <mxCell id="e0hxpYVWqys8dBpXmxLi-101" style="edgeStyle=orthogonalEdgeStyle;rounded=0;orthogonalLoop=1;jettySize=auto;html=1;exitX=0;exitY=0.5;exitDx=0;exitDy=0;entryX=0;entryY=0;entryDx=0;entryDy=0;" edge="1" parent="1" source="e0hxpYVWqys8dBpXmxLi-24" target="e0hxpYVWqys8dBpXmxLi-66">
          <mxGeometry relative="1" as="geometry">
            <Array as="points">
              <mxPoint x="30" y="95" />
            </Array>
          </mxGeometry>
        </mxCell>
        <mxCell id="e0hxpYVWqys8dBpXmxLi-102" style="edgeStyle=orthogonalEdgeStyle;rounded=0;orthogonalLoop=1;jettySize=auto;html=1;exitX=1;exitY=0.5;exitDx=0;exitDy=0;entryX=1;entryY=0;entryDx=0;entryDy=0;" edge="1" parent="1" source="e0hxpYVWqys8dBpXmxLi-37" target="e0hxpYVWqys8dBpXmxLi-88">
          <mxGeometry relative="1" as="geometry">
            <Array as="points">
              <mxPoint x="780" y="130" />
              <mxPoint x="780" y="130" />
            </Array>
          </mxGeometry>
        </mxCell>
        <mxCell id="e0hxpYVWqys8dBpXmxLi-103" style="edgeStyle=orthogonalEdgeStyle;rounded=0;orthogonalLoop=1;jettySize=auto;html=1;exitX=0.5;exitY=0;exitDx=0;exitDy=0;entryX=0.5;entryY=0;entryDx=0;entryDy=0;" edge="1" parent="1" source="e0hxpYVWqys8dBpXmxLi-40" target="e0hxpYVWqys8dBpXmxLi-40">
          <mxGeometry relative="1" as="geometry">
            <Array as="points">
              <mxPoint x="414" y="160" />
              <mxPoint x="413" y="160" />
            </Array>
          </mxGeometry>
        </mxCell>
        <mxCell id="e0hxpYVWqys8dBpXmxLi-104" style="edgeStyle=orthogonalEdgeStyle;rounded=0;orthogonalLoop=1;jettySize=auto;html=1;exitX=1;exitY=0.5;exitDx=0;exitDy=0;entryX=1;entryY=0;entryDx=0;entryDy=0;" edge="1" parent="1" source="e0hxpYVWqys8dBpXmxLi-50" target="e0hxpYVWqys8dBpXmxLi-76">
          <mxGeometry relative="1" as="geometry">
            <Array as="points">
              <mxPoint x="504" y="270" />
              <mxPoint x="504" y="270" />
            </Array>
          </mxGeometry>
        </mxCell>
      </root>
    </mxGraphModel>
  </diagram>
</mxfile>
